<svg
  xmlns="http://www.w3.org/2000/svg"
  width="24"
  height="24"
  viewBox="0 0 24 24"
  fill="none"
>
  <path
    d="M9.118 2.10499C9.28909 2.00377 9.49336 1.97462 9.68593 2.02394C9.8785 2.07325 10.0436 2.197 10.145 2.36799L14.075 8.99999H21.235C21.658 8.99999 22 9.34199 22 9.76499V12C22.0009 13.7024 21.5669 15.3768 20.7391 16.8644C19.9113 18.3519 18.7172 19.6034 17.27 20.5H20.25C20.4489 20.5 20.6397 20.579 20.7803 20.7197C20.921 20.8603 21 21.0511 21 21.25C21 21.4489 20.921 21.6397 20.7803 21.7803C20.6397 21.921 20.4489 22 20.25 22H3.75C3.55109 22 3.36032 21.921 3.21967 21.7803C3.07902 21.6397 3 21.4489 3 21.25C3 21.0511 3.07902 20.8603 3.21967 20.7197C3.36032 20.579 3.55109 20.5 3.75 20.5H6.73C5.28284 19.6034 4.08873 18.3519 3.26094 16.8644C2.43314 15.3768 1.99911 13.7024 2 12V9.76499C2 9.34199 2.342 8.99999 2.765 8.99999H8.332L4.855 3.13199C4.761 2.96131 4.73712 2.76075 4.78841 2.57278C4.83969 2.3848 4.96212 2.22416 5.12977 2.12487C5.29743 2.02558 5.49714 1.99543 5.68663 2.04081C5.87612 2.08618 6.04051 2.20353 6.145 2.36799L10.075 8.99999H12.332L8.855 3.13199C8.75379 2.9609 8.72463 2.75663 8.77395 2.56406C8.82326 2.37148 8.94701 2.20637 9.118 2.10499ZM3.5 10.5V12C3.5 12.338 3.52 12.672 3.558 13H20.442C20.48 12.672 20.5 12.338 20.5 12V10.5H3.5ZM3.874 14.5C4.40985 16.2367 5.48802 17.756 6.95041 18.8353C8.41281 19.9145 10.1825 20.4968 12 20.4968C13.8175 20.4968 15.5872 19.9145 17.0496 18.8353C18.512 17.756 19.5901 16.2367 20.126 14.5H3.874Z"
    fill="currentColor"
  />
</svg>