<svg width="24" height="24" viewBox="0 0 24 24" fill="none" xmlns="http://www.w3.org/2000/svg">
<path d="M12 1.92859C16.6157 1.92859 20.3571 5.67002 20.3571 10.2857C20.3571 13.8172 17.8757 17.6657 12.9771 21.8726C12.7048 22.1066 12.3575 22.2351 11.9984 22.2348C11.6393 22.2345 11.2923 22.1053 11.0203 21.8709L10.6963 21.5897C6.01457 17.4926 3.64285 13.7383 3.64285 10.2857C3.64285 5.67002 7.38428 1.92859 12 1.92859ZM12 3.2143C10.1245 3.2143 8.32589 3.95933 6.99974 5.28548C5.67359 6.61163 4.92857 8.41027 4.92857 10.2857C4.92857 13.2874 7.11257 16.746 11.5406 20.6203L11.8603 20.8972C11.8992 20.9306 11.9487 20.949 12 20.949C12.0513 20.949 12.1008 20.9306 12.1397 20.8972C16.782 16.9097 19.0714 13.3586 19.0714 10.2857C19.0714 9.3571 18.8885 8.43756 18.5331 7.57961C18.1778 6.72167 17.6569 5.94212 17.0003 5.28548C16.3436 4.62883 15.5641 4.10796 14.7061 3.75258C13.8482 3.39721 12.9286 3.2143 12 3.2143ZM12 7.07145C12.8525 7.07145 13.67 7.41009 14.2728 8.01289C14.8756 8.61568 15.2143 9.43325 15.2143 10.2857C15.2143 11.1382 14.8756 11.9558 14.2728 12.5586C13.67 13.1614 12.8525 13.5 12 13.5C11.1475 13.5 10.3299 13.1614 9.72715 12.5586C9.12436 11.9558 8.78571 11.1382 8.78571 10.2857C8.78571 9.43325 9.12436 8.61568 9.72715 8.01289C10.3299 7.41009 11.1475 7.07145 12 7.07145ZM12 8.35716C11.4885 8.35716 10.998 8.56035 10.6363 8.92203C10.2746 9.2837 10.0714 9.77424 10.0714 10.2857C10.0714 10.7972 10.2746 11.2878 10.6363 11.6494C10.998 12.0111 11.4885 12.2143 12 12.2143C12.5115 12.2143 13.002 12.0111 13.3637 11.6494C13.7254 11.2878 13.9286 10.7972 13.9286 10.2857C13.9286 9.77424 13.7254 9.2837 13.3637 8.92203C13.002 8.56035 12.5115 8.35716 12 8.35716Z" fill="currentColor"/>
</svg>
