<svg width="24" height="24" viewBox="0 0 24 24" fill="none" xmlns="http://www.w3.org/2000/svg">
<path d="M12 1.99598C13.9466 1.99342 15.8178 2.74882 17.217 4.10214C18.6162 5.45545 19.4336 7.30036 19.496 9.24598L19.5 9.49598V13.593L20.88 16.749C20.963 16.9392 20.9973 17.147 20.98 17.3538C20.9626 17.5605 20.894 17.7597 20.7804 17.9334C20.6667 18.107 20.5117 18.2496 20.3292 18.3484C20.1467 18.4471 19.9425 18.4989 19.735 18.499L15 18.502C15.001 19.283 14.6974 20.0336 14.1538 20.5943C13.6101 21.155 12.8692 21.4815 12.0885 21.5046C11.3079 21.5276 10.549 21.2453 9.9732 20.7177C9.3974 20.1901 9.05006 19.4587 9.005 18.679L9 18.499H4.275C4.06781 18.4987 3.86392 18.447 3.68165 18.3485C3.49938 18.25 3.34443 18.1078 3.23072 17.9346C3.117 17.7614 3.04809 17.5626 3.03016 17.3562C3.01223 17.1498 3.04585 16.9422 3.128 16.752L4.5 13.594V9.49598C4.5 5.34098 7.852 1.99598 12 1.99598ZM13.5 18.5L10.5 18.502C10.4999 18.8873 10.6481 19.2578 10.9139 19.5368C11.1796 19.8158 11.5426 19.9818 11.9274 20.0005C12.3123 20.0191 12.6895 19.889 12.981 19.637C13.2725 19.385 13.4558 19.0305 13.493 18.647L13.499 18.5H13.5ZM12 3.49598C8.68 3.49598 6 6.16998 6 9.49598V13.906L4.656 17H19.353L18 13.907V9.50898L17.996 9.28398C17.944 7.7294 17.2892 6.25603 16.1701 5.17575C15.051 4.09546 13.5554 3.49303 12 3.49598Z" fill="#7FAE1B"/>
</svg>
