<svg width="24" height="25" viewBox="0 0 24 25" fill="none" xmlns="http://www.w3.org/2000/svg">
<path d="M2.5 4.30688C2.5 4.10797 2.57902 3.91721 2.71967 3.77655C2.86032 3.6359 3.05109 3.55688 3.25 3.55688H3.808C4.758 3.55688 5.328 4.19588 5.653 4.78988C5.87 5.18588 6.027 5.64489 6.15 6.06088C6.18327 6.05826 6.21663 6.05692 6.25 6.05688H18.748C19.578 6.05688 20.178 6.85088 19.95 7.64988L18.122 14.0589C17.9581 14.6337 17.6114 15.1395 17.1343 15.4997C16.6572 15.8599 16.0758 16.0548 15.478 16.0549H9.53C8.92749 16.0549 8.34165 15.8571 7.86252 15.4918C7.3834 15.1264 7.0375 14.6139 6.878 14.0329L6.118 11.2609L4.858 7.01288L4.857 7.00488C4.701 6.43788 4.555 5.90688 4.337 5.51088C4.128 5.12588 3.96 5.05688 3.809 5.05688H3.25C3.05109 5.05688 2.86032 4.97787 2.71967 4.83721C2.57902 4.69656 2.5 4.5058 2.5 4.30688ZM7.573 10.8969L8.324 13.6359C8.474 14.1779 8.967 14.5549 9.53 14.5549H15.478C15.7497 14.5549 16.014 14.4663 16.2309 14.3027C16.4478 14.139 16.6054 13.9092 16.68 13.6479L18.417 7.55688H6.585L7.559 10.8439L7.573 10.8969Z" fill="white"/>
<path d="M11 19.0569C11 19.5873 10.7893 20.096 10.4142 20.4711C10.0391 20.8462 9.53043 21.0569 9 21.0569C8.46957 21.0569 7.96086 20.8462 7.58579 20.4711C7.21071 20.096 7 19.5873 7 19.0569C7 18.5265 7.21071 18.0177 7.58579 17.6427C7.96086 17.2676 8.46957 17.0569 9 17.0569C9.53043 17.0569 10.0391 17.2676 10.4142 17.6427C10.7893 18.0177 11 18.5265 11 19.0569ZM9.5 19.0569C9.5 18.9243 9.44732 18.7971 9.35355 18.7033C9.25979 18.6096 9.13261 18.5569 9 18.5569C8.86739 18.5569 8.74021 18.6096 8.64645 18.7033C8.55268 18.7971 8.5 18.9243 8.5 19.0569C8.5 19.1895 8.55268 19.3167 8.64645 19.4104C8.74021 19.5042 8.86739 19.5569 9 19.5569C9.13261 19.5569 9.25979 19.5042 9.35355 19.4104C9.44732 19.3167 9.5 19.1895 9.5 19.0569Z" fill="white"/>
<path d="M18 19.0569C18 19.5873 17.7893 20.096 17.4142 20.4711C17.0391 20.8462 16.5304 21.0569 16 21.0569C15.4696 21.0569 14.9609 20.8462 14.5858 20.4711C14.2107 20.096 14 19.5873 14 19.0569C14 18.5265 14.2107 18.0177 14.5858 17.6427C14.9609 17.2676 15.4696 17.0569 16 17.0569C16.5304 17.0569 17.0391 17.2676 17.4142 17.6427C17.7893 18.0177 18 18.5265 18 19.0569ZM16.5 19.0569C16.5 18.9243 16.4473 18.7971 16.3536 18.7033C16.2598 18.6096 16.1326 18.5569 16 18.5569C15.8674 18.5569 15.7402 18.6096 15.6464 18.7033C15.5527 18.7971 15.5 18.9243 15.5 19.0569C15.5 19.1895 15.5527 19.3167 15.6464 19.4104C15.7402 19.5042 15.8674 19.5569 16 19.5569C16.1326 19.5569 16.2598 19.5042 16.3536 19.4104C16.4473 19.3167 16.5 19.1895 16.5 19.0569Z" fill="white"/>
<path fill-rule="evenodd" clip-rule="evenodd" d="M12.5 8.05688C12.8314 8.05688 13.1 8.32551 13.1 8.65688V10.4569H14.9C15.2314 10.4569 15.5 10.7255 15.5 11.0569C15.5 11.3883 15.2314 11.6569 14.9 11.6569H13.1V13.4569C13.1 13.7883 12.8314 14.0569 12.5 14.0569C12.1686 14.0569 11.9 13.7883 11.9 13.4569V11.6569H10.1C9.76863 11.6569 9.5 11.3883 9.5 11.0569C9.5 10.7255 9.76863 10.4569 10.1 10.4569H11.9V8.65688C11.9 8.32551 12.1686 8.05688 12.5 8.05688Z" fill="white"/>
</svg>
