<svg width="18" height="18" viewBox="0 0 18 18" fill="none" xmlns="http://www.w3.org/2000/svg">
<path d="M6.8814 3.7323C6.96567 3.64782 7.08004 3.60027 7.19936 3.6001C7.31869 3.59993 7.43319 3.64716 7.5177 3.7314L12.4533 8.6499C12.4994 8.69589 12.536 8.75052 12.561 8.81068C12.586 8.87083 12.5988 8.93532 12.5988 9.00045C12.5988 9.06558 12.586 9.13007 12.561 9.19023C12.536 9.25038 12.4994 9.30502 12.4533 9.351L7.5177 14.2695C7.43271 14.3514 7.31898 14.3966 7.20099 14.3954C7.08299 14.3942 6.97019 14.3467 6.88687 14.2631C6.80355 14.1796 6.75639 14.0667 6.75553 13.9487C6.75468 13.8307 6.8002 13.7171 6.8823 13.6323L11.5308 9L6.8823 4.3686C6.79782 4.28433 6.75026 4.16996 6.7501 4.05064C6.74993 3.93131 6.79716 3.81681 6.8814 3.7323Z" fill="#A6A99D"/>
</svg>
