<svg
  xmlns="http://www.w3.org/2000/svg"
  width="24"
  height="24"
  viewBox="0 0 24 24"
  fill="none"
>
  <path
    d="M6 2.40002C5.91206 2.40006 5.8252 2.41942 5.74557 2.45675C5.66594 2.49408 5.59549 2.54845 5.5392 2.61602L2.5392 6.21602C2.44932 6.32381 2.40006 6.45968 2.4 6.60002V8.40002C2.4 9.46562 2.8632 10.4244 3.6 11.0832V21C3.6 21.1592 3.66322 21.3118 3.77574 21.4243C3.88826 21.5368 4.04087 21.6 4.2 21.6H19.8C19.9591 21.6 20.1117 21.5368 20.2243 21.4243C20.3368 21.3118 20.4 21.1592 20.4 21V11.0832C21.1368 10.4232 21.6 9.46562 21.6 8.40002V6.60002V6.57842C21.6 6.47042 21.6 6.38402 21.4608 6.21602L18.4608 2.61602C18.4045 2.54845 18.3341 2.49408 18.2544 2.45675C18.1748 2.41942 18.0879 2.40006 18 2.40002H6ZM6 10.8C5.36348 10.8 4.75303 10.5472 4.30295 10.0971C3.85286 9.64699 3.6 9.03654 3.6 8.40002V7.20002H8.4V8.40002C8.4 9.03654 8.14715 9.64699 7.69706 10.0971C7.24697 10.5472 6.63652 10.8 6 10.8ZM12 10.8C11.3635 10.8 10.753 10.5472 10.3029 10.0971C9.85286 9.64699 9.6 9.03654 9.6 8.40002V7.20002H14.4V8.40002C14.4 9.03654 14.1471 9.64699 13.6971 10.0971C13.247 10.5472 12.6365 10.8 12 10.8ZM18 10.8C17.3635 10.8 16.753 10.5472 16.3029 10.0971C15.8529 9.64699 15.6 9.03654 15.6 8.40002V7.20002H20.4V8.40002C20.4 9.03654 20.1471 9.64699 19.6971 10.0971C19.247 10.5472 18.6365 10.8 18 10.8ZM9 20.4H4.8V11.796C5.55636 12.0641 6.38066 12.0716 7.14173 11.8171C7.9028 11.5627 8.55692 11.0611 9 10.392C9.32839 10.8869 9.77423 11.2928 10.2977 11.5734C10.8212 11.854 11.4061 12.0006 12 12C12.5941 12.0004 13.179 11.8537 13.7025 11.5729C14.226 11.2921 14.6718 10.886 15 10.3908C15.4431 11.0599 16.0972 11.5615 16.8583 11.8159C17.6193 12.0704 18.4436 12.0629 19.2 11.7948V20.4H15V13.8C15 13.6409 14.9368 13.4883 14.8243 13.3758C14.7117 13.2632 14.5591 13.2 14.4 13.2H9.6C9.44087 13.2 9.28826 13.2632 9.17574 13.3758C9.06322 13.4883 9 13.6409 9 13.8V20.4ZM8.568 6.00002H4.2816L6.2808 3.60002H9.3672L8.568 6.00002ZM14.1672 6.00002H9.8328L10.632 3.60002H13.368L14.1672 6.00002ZM15.432 6.00002L14.6328 3.60002H17.7192L19.7196 6.00002H15.432ZM10.2 20.4V14.4H13.8V20.4H15H10.2Z"
    fill="currentColor"
  />
</svg>