<svg
  xmlns="http://www.w3.org/2000/svg"
  width="24"
  height="24"
  viewBox="0 0 24 24"
  fill="none"
>
  <path
    d="M17.28 8.72C17.4205 8.86063 17.4993 9.05125 17.4993 9.25C17.4993 9.44875 17.4205 9.63937 17.28 9.78L15.28 11.78C15.1394 11.9205 14.9488 11.9993 14.75 11.9993C14.5512 11.9993 14.3606 11.9205 14.22 11.78L13.22 10.78C13.1463 10.7113 13.0872 10.6285 13.0462 10.5365C13.0052 10.4445 12.9832 10.3452 12.9814 10.2445C12.9796 10.1438 12.9982 10.0438 13.0359 9.9504C13.0736 9.85701 13.1297 9.77218 13.201 9.70096C13.2722 9.62974 13.357 9.5736 13.4504 9.53588C13.5438 9.49816 13.6438 9.47963 13.7445 9.48141C13.8452 9.48318 13.9445 9.50523 14.0365 9.54622C14.1285 9.58721 14.2113 9.64631 14.28 9.72L14.75 10.19L16.22 8.72C16.3606 8.57955 16.5512 8.50066 16.75 8.50066C16.9488 8.50066 17.1394 8.57955 17.28 8.72ZM17.28 15.28C17.3537 15.2113 17.4128 15.1285 17.4538 15.0365C17.4948 14.9445 17.5168 14.8452 17.5186 14.7445C17.5204 14.6438 17.5018 14.5438 17.4641 14.4504C17.4264 14.357 17.3703 14.2722 17.299 14.201C17.2278 14.1297 17.143 14.0736 17.0496 14.0359C16.9562 13.9982 16.8562 13.9796 16.7555 13.9814C16.6548 13.9832 16.5555 14.0052 16.4635 14.0462C16.3715 14.0872 16.2887 14.1463 16.22 14.22L14.75 15.69L14.28 15.22C14.2113 15.1463 14.1285 15.0872 14.0365 15.0462C13.9445 15.0052 13.8452 14.9832 13.7445 14.9814C13.6438 14.9796 13.5438 14.9982 13.4504 15.0359C13.357 15.0736 13.2722 15.1297 13.201 15.201C13.1297 15.2722 13.0736 15.357 13.0359 15.4504C12.9982 15.5438 12.9796 15.6438 12.9814 15.7445C12.9832 15.8452 13.0052 15.9445 13.0462 16.0365C13.0872 16.1285 13.1463 16.2113 13.22 16.28L14.22 17.28C14.3606 17.4205 14.5512 17.4993 14.75 17.4993C14.9488 17.4993 15.1394 17.4205 15.28 17.28L17.28 15.28ZM7 10.25C7 10.0511 7.07902 9.86032 7.21967 9.71967C7.36032 9.57902 7.55109 9.5 7.75 9.5H11.25C11.4489 9.5 11.6397 9.57902 11.7803 9.71967C11.921 9.86032 12 10.0511 12 10.25C12 10.4489 11.921 10.6397 11.7803 10.7803C11.6397 10.921 11.4489 11 11.25 11H7.75C7.55109 11 7.36032 10.921 7.21967 10.7803C7.07902 10.6397 7 10.4489 7 10.25ZM7.75 15C7.55109 15 7.36032 15.079 7.21967 15.2197C7.07902 15.3603 7 15.5511 7 15.75C7 15.9489 7.07902 16.1397 7.21967 16.2803C7.36032 16.421 7.55109 16.5 7.75 16.5H11.25C11.4489 16.5 11.6397 16.421 11.7803 16.2803C11.921 16.1397 12 15.9489 12 15.75C12 15.5511 11.921 15.3603 11.7803 15.2197C11.6397 15.079 11.4489 15 11.25 15H7.75ZM15.986 4C15.9245 3.44999 15.6625 2.94194 15.25 2.57297C14.8375 2.20401 14.3034 2.00002 13.75 2H10.25C9.69656 2.00002 9.16255 2.20401 8.75004 2.57297C8.33754 2.94194 8.07549 3.44999 8.014 4H6.25C5.65326 4 5.08097 4.23705 4.65901 4.65901C4.23705 5.08097 4 5.65326 4 6.25V19.75C4 20.3467 4.23705 20.919 4.65901 21.341C5.08097 21.7629 5.65326 22 6.25 22H17.75C18.0455 22 18.3381 21.9418 18.611 21.8287C18.884 21.7157 19.1321 21.5499 19.341 21.341C19.5499 21.1321 19.7157 20.884 19.8287 20.611C19.9418 20.3381 20 20.0455 20 19.75V6.25C20 5.95453 19.9418 5.66194 19.8287 5.38896C19.7157 5.11598 19.5499 4.86794 19.341 4.65901C19.1321 4.45008 18.884 4.28434 18.611 4.17127C18.3381 4.0582 18.0455 4 17.75 4H15.986ZM10.25 6.5H13.75C14.53 6.5 15.217 6.103 15.621 5.5H17.75C17.9489 5.5 18.1397 5.57902 18.2803 5.71967C18.421 5.86032 18.5 6.05109 18.5 6.25V19.75C18.5 19.9489 18.421 20.1397 18.2803 20.2803C18.1397 20.421 17.9489 20.5 17.75 20.5H6.25C6.05109 20.5 5.86032 20.421 5.71967 20.2803C5.57902 20.1397 5.5 19.9489 5.5 19.75V6.25C5.5 6.05109 5.57902 5.86032 5.71967 5.71967C5.86032 5.57902 6.05109 5.5 6.25 5.5H8.379C8.783 6.103 9.47 6.5 10.25 6.5ZM10.25 3.5H13.75C13.9489 3.5 14.1397 3.57902 14.2803 3.71967C14.421 3.86032 14.5 4.05109 14.5 4.25C14.5 4.44891 14.421 4.63968 14.2803 4.78033C14.1397 4.92098 13.9489 5 13.75 5H10.25C10.0511 5 9.86032 4.92098 9.71967 4.78033C9.57902 4.63968 9.5 4.44891 9.5 4.25C9.5 4.05109 9.57902 3.86032 9.71967 3.71967C9.86032 3.57902 10.0511 3.5 10.25 3.5Z"
    fill="currentColor"
  />
</svg>