<svg xmlns="http://www.w3.org/2000/svg" width="24" height="24" viewBox="0 0 24 24" fill="none">
  <path d="M12.8428 0.293436C12.3555 -0.0978119 11.6445 -0.0978119 11.1572 0.293436C9.10097 1.94512 4 6.47114 4 10.7104V10.8994C4.00233 10.9305 4.00233 10.9638 4.00233 10.9972C4.00233 11.0327 4.00466 11.0683 4.00699 11.1016C4.00933 11.1617 4.01399 11.2239 4.01632 11.2862C4.02098 11.3506 4.02564 11.4151 4.03264 11.4773C4.0373 11.5329 4.04196 11.5863 4.04896 11.6396C4.05129 11.6707 4.05595 11.7041 4.06062 11.7352C4.06528 11.7663 4.06994 11.7974 4.0746 11.8308C4.47093 14.6118 6.4549 16.9214 9.1103 17.9107C10.0125 18.2464 10.98 17.5928 10.9427 16.6702L10.1314 7.51373C10.0568 6.67344 10.7539 5.95096 11.6375 5.95096H12.3905C13.2624 5.95096 13.9502 6.65787 13.8872 7.48483L13.1901 16.6169C13.1505 17.5483 14.1367 18.2086 15.0389 17.8529C17.6197 16.8348 19.5361 14.5606 19.9277 11.833C19.9324 11.8019 19.9371 11.7708 19.9394 11.7374C19.944 11.7063 19.9487 11.6752 19.951 11.6418C19.958 11.5885 19.9627 11.5351 19.9674 11.4796C19.9744 11.4173 19.979 11.3528 19.9837 11.2884C19.9883 11.2284 19.9907 11.1661 19.993 11.1039C19.9953 11.0683 19.9953 11.0327 19.9977 10.9972C20 10.9638 20 10.9327 20 10.8994C20 10.8727 20 10.8438 20 10.8149V10.7148C19.9977 6.47337 14.899 1.94512 12.8428 0.293436Z" fill="#7FBB15"/>
  <path d="M12.0174 19C11.5534 19 11.1311 19.1108 10.7413 19.3349C10.3538 19.5566 10.0499 19.8656 9.82947 20.2524C9.60905 20.6415 9.5 21.059 9.5 21.5071C9.5 22.1958 9.74362 22.7854 10.2332 23.2712C10.7227 23.7571 11.3167 24 12.0151 24C12.6926 24 13.2773 23.7571 13.7645 23.2712C14.2541 22.7854 14.5 22.1958 14.5 21.5071C14.5 20.8184 14.2541 20.2288 13.7645 19.7358C13.2796 19.2453 12.6949 19 12.0174 19Z" fill="#7FBB15"/>
</svg>