<svg
      xmlns="http://www.w3.org/2000/svg"
      width="24"
      height="24"
      viewBox="0 0 24 24"
      fill="none"
    >
      <path
        d="M17.754 14C18.0494 13.9999 18.342 14.058 18.615 14.1709C18.8879 14.2839 19.136 14.4495 19.3449 14.6584C19.5539 14.8672 19.7196 15.1152 19.8327 15.3881C19.9458 15.6611 20.004 15.9536 20.004 16.249V16.824C20.004 17.718 19.684 18.584 19.102 19.262C17.532 21.096 15.145 22.001 12 22.001C8.854 22.001 6.468 21.096 4.902 19.261C4.32238 18.5821 4.00397 17.7187 4.004 16.826V16.249C4.00387 15.9536 4.06194 15.661 4.17491 15.3881C4.28787 15.1151 4.45351 14.867 4.66236 14.6581C4.87121 14.4492 5.11919 14.2834 5.39211 14.1703C5.66504 14.0572 5.95757 13.999 6.253 13.999H17.754V14ZM17.754 15.5H6.253C6.15455 15.4999 6.05705 15.5192 5.96606 15.5568C5.87507 15.5943 5.79239 15.6495 5.72273 15.7191C5.65307 15.7886 5.59781 15.8712 5.56011 15.9622C5.5224 16.0531 5.503 16.1506 5.503 16.249V16.826C5.503 17.362 5.695 17.88 6.043 18.287C7.296 19.755 9.262 20.501 12 20.501C14.738 20.501 16.706 19.755 17.962 18.287C18.311 17.8795 18.5029 17.3606 18.503 16.824V16.249C18.5031 16.1506 18.4839 16.0531 18.4463 15.9621C18.4087 15.8711 18.3535 15.7884 18.284 15.7188C18.2144 15.6491 18.1318 15.5938 18.0409 15.5561C17.9499 15.5184 17.8524 15.499 17.754 15.499V15.5ZM12 2.00403C13.3261 2.00403 14.5978 2.53081 15.5355 3.46849C16.4732 4.40618 17 5.67795 17 7.00403C17 8.33011 16.4732 9.60188 15.5355 10.5396C14.5978 11.4772 13.3261 12.004 12 12.004C10.6739 12.004 9.40215 11.4772 8.46446 10.5396C7.52678 9.60188 7 8.33011 7 7.00403C7 5.67795 7.52678 4.40618 8.46446 3.46849C9.40215 2.53081 10.6739 2.00403 12 2.00403ZM12 3.50403C11.5404 3.50403 11.0852 3.59456 10.6606 3.77045C10.236 3.94634 9.85013 4.20415 9.52512 4.52915C9.20012 4.85416 8.94231 5.24 8.76642 5.66464C8.59053 6.08928 8.5 6.5444 8.5 7.00403C8.5 7.46365 8.59053 7.91878 8.76642 8.34342C8.94231 8.76806 9.20012 9.1539 9.52512 9.4789C9.85013 9.80391 10.236 10.0617 10.6606 10.2376C11.0852 10.4135 11.5404 10.504 12 10.504C12.9283 10.504 13.8185 10.1353 14.4749 9.4789C15.1312 8.82253 15.5 7.93229 15.5 7.00403C15.5 6.07577 15.1312 5.18553 14.4749 4.52915C13.8185 3.87278 12.9283 3.50403 12 3.50403Z"
        fill="currentColor"
      />
    </svg>